<svg xmlns="http://www.w3.org/2000/svg" xmlns:xlink="http://www.w3.org/1999/xlink" contentStyleType="text/css" data-diagram-type="CLASS" height="556px" preserveAspectRatio="none" style="width:961px;height:556px;background:#FFFFFF;" version="1.1" viewBox="0 0 961 556" width="961px" zoomAndPan="magnify"><defs/><g><!--class TipoMovimiento--><g class="entity" data-entity="TipoMovimiento" data-source-line="4" data-uid="ent0002" id="entity_TipoMovimiento"><rect fill="#F1F1F1" height="80.5938" rx="2.5" ry="2.5" style="stroke:#181818;stroke-width:0.5;" width="143.7813" x="7" y="31.44"/><ellipse cx="22" cy="47.44" fill="#EB937F" rx="11" ry="11" style="stroke:#181818;stroke-width:1;"/><path d="M26.1094,53.44 L18.3906,53.44 L18.3906,41.0494 L26.1094,41.0494 L26.1094,43.2056 L20.8438,43.2056 L20.8438,45.8775 L25.6094,45.8775 L25.6094,48.0338 L20.8438,48.0338 L20.8438,51.2838 L26.1094,51.2838 L26.1094,53.44 Z " fill="#000000"/><text fill="#000000" font-family="sans-serif" font-size="14" lengthAdjust="spacing" textLength="111.7813" x="36" y="52.2867">TipoMovimiento</text><line style="stroke:#181818;stroke-width:0.5;" x1="8" x2="149.7813" y1="63.44" y2="63.44"/><text fill="#000000" font-family="sans-serif" font-size="14" lengthAdjust="spacing" textLength="67.5322" x="13" y="80.4351">ENTRADA</text><text fill="#000000" font-family="sans-serif" font-size="14" lengthAdjust="spacing" textLength="50.75" x="13" y="96.732">SALIDA</text><line style="stroke:#181818;stroke-width:0.5;" x1="8" x2="149.7813" y1="104.0338" y2="104.0338"/></g><!--class RolSistema--><g class="entity" data-entity="RolSistema" data-source-line="9" data-uid="ent0003" id="entity_RolSistema"><rect fill="#F1F1F1" height="96.8906" rx="2.5" ry="2.5" style="stroke:#181818;stroke-width:0.5;" width="170.2998" x="185.74" y="23.29"/><ellipse cx="227.6174" cy="39.29" fill="#EB937F" rx="11" ry="11" style="stroke:#181818;stroke-width:1;"/><path d="M231.7268,45.29 L224.008,45.29 L224.008,32.8994 L231.7268,32.8994 L231.7268,35.0556 L226.4611,35.0556 L226.4611,37.7275 L231.2268,37.7275 L231.2268,39.8838 L226.4611,39.8838 L226.4611,43.1338 L231.7268,43.1338 L231.7268,45.29 Z " fill="#000000"/><text fill="#000000" font-family="sans-serif" font-size="14" lengthAdjust="spacing" textLength="78.5723" x="247.5901" y="44.1367">RolSistema</text><line style="stroke:#181818;stroke-width:0.5;" x1="186.74" x2="355.0398" y1="55.29" y2="55.29"/><text fill="#000000" font-family="sans-serif" font-size="14" lengthAdjust="spacing" textLength="119.4375" x="191.74" y="72.2851">ADMINISTRADOR</text><text fill="#000000" font-family="sans-serif" font-size="14" lengthAdjust="spacing" textLength="158.2998" x="191.74" y="88.582">ENCARGADO_BODEGA</text><text fill="#000000" font-family="sans-serif" font-size="14" lengthAdjust="spacing" textLength="89.4893" x="191.74" y="104.8789">SUPERVISOR</text><line style="stroke:#181818;stroke-width:0.5;" x1="186.74" x2="355.0398" y1="112.1806" y2="112.1806"/></g><!--class Categoria--><g class="entity" data-entity="Categoria" data-source-line="18" data-uid="ent0004" id="entity_Categoria"><rect fill="#F1F1F1" height="96.8906" rx="2.5" ry="2.5" style="stroke:#181818;stroke-width:0.5;" width="161.4473" x="391.17" y="23.29"/><ellipse cx="433.7611" cy="39.29" fill="#ADD1B2" rx="11" ry="11" style="stroke:#181818;stroke-width:1;"/><path d="M436.7298,44.9306 Q436.1517,45.2275 435.5111,45.3681 Q434.8704,45.5244 434.1673,45.5244 Q431.6673,45.5244 430.3392,43.8838 Q429.0267,42.2275 429.0267,39.1025 Q429.0267,35.9775 430.3392,34.3213 Q431.6673,32.665 434.1673,32.665 Q434.8704,32.665 435.5111,32.8213 Q436.1673,32.9775 436.7298,33.2744 L436.7298,35.9931 Q436.1048,35.415 435.5111,35.1494 Q434.9173,34.8681 434.2923,34.8681 Q432.9486,34.8681 432.2611,35.9463 Q431.5736,37.0088 431.5736,39.1025 Q431.5736,41.1963 432.2611,42.2744 Q432.9486,43.3369 434.2923,43.3369 Q434.9173,43.3369 435.5111,43.0713 Q436.1048,42.79 436.7298,42.2119 L436.7298,44.9306 Z " fill="#000000"/><text fill="#000000" font-family="sans-serif" font-size="14" lengthAdjust="spacing" textLength="68.1338" x="453.8924" y="44.1367">Categoria</text><line style="stroke:#181818;stroke-width:0.5;" x1="392.17" x2="551.6173" y1="55.29" y2="55.29"/><ellipse cx="402.17" cy="68.9384" fill="none" rx="3" ry="3" style="stroke:#038048;stroke-width:1;"/><text fill="#000000" font-family="sans-serif" font-size="14" lengthAdjust="spacing" textLength="60.5186" x="411.17" y="72.2851">id : Long</text><ellipse cx="402.17" cy="85.2353" fill="none" rx="3" ry="3" style="stroke:#038048;stroke-width:1;"/><text fill="#000000" font-family="sans-serif" font-size="14" lengthAdjust="spacing" textLength="109.7305" x="411.17" y="88.582">nombre : String</text><ellipse cx="402.17" cy="101.5322" fill="none" rx="3" ry="3" style="stroke:#038048;stroke-width:1;"/><text fill="#000000" font-family="sans-serif" font-size="14" lengthAdjust="spacing" textLength="135.4473" x="411.17" y="104.8789">descripcion : String</text><line style="stroke:#181818;stroke-width:0.5;" x1="392.17" x2="551.6173" y1="112.1806" y2="112.1806"/></g><!--class Proveedor--><g class="entity" data-entity="Proveedor" data-source-line="24" data-uid="ent0005" id="entity_Proveedor"><rect fill="#F1F1F1" height="129.4844" rx="2.5" ry="2.5" style="stroke:#181818;stroke-width:0.5;" width="145.2666" x="594.26" y="7"/><ellipse cx="628.0624" cy="23" fill="#ADD1B2" rx="11" ry="11" style="stroke:#181818;stroke-width:1;"/><path d="M631.0312,28.6406 Q630.4531,28.9375 629.8124,29.0781 Q629.1718,29.2344 628.4687,29.2344 Q625.9687,29.2344 624.6406,27.5938 Q623.3281,25.9375 623.3281,22.8125 Q623.3281,19.6875 624.6406,18.0313 Q625.9687,16.375 628.4687,16.375 Q629.1718,16.375 629.8124,16.5313 Q630.4687,16.6875 631.0312,16.9844 L631.0312,19.7031 Q630.4062,19.125 629.8124,18.8594 Q629.2187,18.5781 628.5937,18.5781 Q627.2499,18.5781 626.5624,19.6563 Q625.8749,20.7188 625.8749,22.8125 Q625.8749,24.9063 626.5624,25.9844 Q627.2499,27.0469 628.5937,27.0469 Q629.2187,27.0469 629.8124,26.7813 Q630.4062,26.5 631.0312,25.9219 L631.0312,28.6406 Z " fill="#000000"/><text fill="#000000" font-family="sans-serif" font-size="14" lengthAdjust="spacing" textLength="71.4834" x="646.2408" y="27.8467">Proveedor</text><line style="stroke:#181818;stroke-width:0.5;" x1="595.26" x2="738.5266" y1="39" y2="39"/><ellipse cx="605.26" cy="52.6484" fill="none" rx="3" ry="3" style="stroke:#038048;stroke-width:1;"/><text fill="#000000" font-family="sans-serif" font-size="14" lengthAdjust="spacing" textLength="60.5186" x="614.26" y="55.9951">id : Long</text><ellipse cx="605.26" cy="68.9453" fill="none" rx="3" ry="3" style="stroke:#038048;stroke-width:1;"/><text fill="#000000" font-family="sans-serif" font-size="14" lengthAdjust="spacing" textLength="109.7305" x="614.26" y="72.292">nombre : String</text><ellipse cx="605.26" cy="85.2422" fill="none" rx="3" ry="3" style="stroke:#038048;stroke-width:1;"/><text fill="#000000" font-family="sans-serif" font-size="14" lengthAdjust="spacing" textLength="119.2666" x="614.26" y="88.5889">direccion : String</text><ellipse cx="605.26" cy="101.5391" fill="none" rx="3" ry="3" style="stroke:#038048;stroke-width:1;"/><text fill="#000000" font-family="sans-serif" font-size="14" lengthAdjust="spacing" textLength="112.9365" x="614.26" y="104.8857">telefono : String</text><ellipse cx="605.26" cy="117.8359" fill="none" rx="3" ry="3" style="stroke:#038048;stroke-width:1;"/><text fill="#000000" font-family="sans-serif" font-size="14" lengthAdjust="spacing" textLength="94.0078" x="614.26" y="121.1826">email : String</text><line style="stroke:#181818;stroke-width:0.5;" x1="595.26" x2="738.5266" y1="128.4844" y2="128.4844"/></g><!--class Producto--><g class="entity" data-entity="Producto" data-source-line="32" data-uid="ent0006" id="entity_Producto"><rect fill="#F1F1F1" height="145.7813" rx="2.5" ry="2.5" style="stroke:#181818;stroke-width:0.5;" width="180.3213" x="434.73" y="213.48"/><ellipse cx="489.5029" cy="229.48" fill="#ADD1B2" rx="11" ry="11" style="stroke:#181818;stroke-width:1;"/><path d="M492.4717,235.1206 Q491.8936,235.4175 491.2529,235.5581 Q490.6123,235.7144 489.9092,235.7144 Q487.4092,235.7144 486.0811,234.0738 Q484.7686,232.4175 484.7686,229.2925 Q484.7686,226.1675 486.0811,224.5113 Q487.4092,222.855 489.9092,222.855 Q490.6123,222.855 491.2529,223.0113 Q491.9092,223.1675 492.4717,223.4644 L492.4717,226.1831 Q491.8467,225.605 491.2529,225.3394 Q490.6592,225.0581 490.0342,225.0581 Q488.6904,225.0581 488.0029,226.1363 Q487.3154,227.1988 487.3154,229.2925 Q487.3154,231.3863 488.0029,232.4644 Q488.6904,233.5269 490.0342,233.5269 Q490.6592,233.5269 491.2529,233.2613 Q491.8467,232.98 492.4717,232.4019 L492.4717,235.1206 Z " fill="#000000"/><text fill="#000000" font-family="sans-serif" font-size="14" lengthAdjust="spacing" textLength="62.2754" x="510.0029" y="234.3267">Producto</text><line style="stroke:#181818;stroke-width:0.5;" x1="435.73" x2="614.0513" y1="245.48" y2="245.48"/><ellipse cx="445.73" cy="259.1284" fill="none" rx="3" ry="3" style="stroke:#038048;stroke-width:1;"/><text fill="#000000" font-family="sans-serif" font-size="14" lengthAdjust="spacing" textLength="60.5186" x="454.73" y="262.4751">id : Long</text><ellipse cx="445.73" cy="275.4253" fill="none" rx="3" ry="3" style="stroke:#038048;stroke-width:1;"/><text fill="#000000" font-family="sans-serif" font-size="14" lengthAdjust="spacing" textLength="109.7305" x="454.73" y="278.772">nombre : String</text><ellipse cx="445.73" cy="291.7222" fill="none" rx="3" ry="3" style="stroke:#038048;stroke-width:1;"/><text fill="#000000" font-family="sans-serif" font-size="14" lengthAdjust="spacing" textLength="135.4473" x="454.73" y="295.0689">descripcion : String</text><ellipse cx="445.73" cy="308.0191" fill="none" rx="3" ry="3" style="stroke:#038048;stroke-width:1;"/><text fill="#000000" font-family="sans-serif" font-size="14" lengthAdjust="spacing" textLength="154.3213" x="454.73" y="311.3657">unidadMedida : String</text><ellipse cx="445.73" cy="324.3159" fill="none" rx="3" ry="3" style="stroke:#038048;stroke-width:1;"/><text fill="#000000" font-family="sans-serif" font-size="14" lengthAdjust="spacing" textLength="145.2363" x="454.73" y="327.6626">stockActual : Integer</text><ellipse cx="445.73" cy="340.6128" fill="none" rx="3" ry="3" style="stroke:#038048;stroke-width:1;"/><text fill="#000000" font-family="sans-serif" font-size="14" lengthAdjust="spacing" textLength="152.0654" x="454.73" y="343.9595">stockMinimo : Integer</text><line style="stroke:#181818;stroke-width:0.5;" x1="435.73" x2="614.0513" y1="351.2613" y2="351.2613"/></g><!--class Movimiento--><g class="entity" data-entity="Movimiento" data-source-line="41" data-uid="ent0007" id="entity_Movimiento"><rect fill="#F1F1F1" height="113.1875" rx="2.5" ry="2.5" style="stroke:#181818;stroke-width:0.5;" width="178.2295" x="595.78" y="436.26"/><ellipse cx="639.7338" cy="452.26" fill="#ADD1B2" rx="11" ry="11" style="stroke:#181818;stroke-width:1;"/><path d="M642.7026,457.9006 Q642.1244,458.1975 641.4838,458.3381 Q640.8432,458.4944 640.1401,458.4944 Q637.6401,458.4944 636.3119,456.8538 Q634.9994,455.1975 634.9994,452.0725 Q634.9994,448.9475 636.3119,447.2913 Q637.6401,445.635 640.1401,445.635 Q640.8432,445.635 641.4838,445.7913 Q642.1401,445.9475 642.7026,446.2444 L642.7026,448.9631 Q642.0776,448.385 641.4838,448.1194 Q640.8901,447.8381 640.2651,447.8381 Q638.9213,447.8381 638.2338,448.9163 Q637.5463,449.9788 637.5463,452.0725 Q637.5463,454.1663 638.2338,455.2444 Q638.9213,456.3069 640.2651,456.3069 Q640.8901,456.3069 641.4838,456.0413 Q642.0776,455.76 642.7026,455.1819 L642.7026,457.9006 Z " fill="#000000"/><text fill="#000000" font-family="sans-serif" font-size="14" lengthAdjust="spacing" textLength="81.8877" x="660.168" y="457.1067">Movimiento</text><line style="stroke:#181818;stroke-width:0.5;" x1="596.78" x2="773.0095" y1="468.26" y2="468.26"/><ellipse cx="606.78" cy="481.9084" fill="none" rx="3" ry="3" style="stroke:#038048;stroke-width:1;"/><text fill="#000000" font-family="sans-serif" font-size="14" lengthAdjust="spacing" textLength="60.5186" x="615.78" y="485.2551">id : Long</text><ellipse cx="606.78" cy="498.2053" fill="none" rx="3" ry="3" style="stroke:#038048;stroke-width:1;"/><text fill="#000000" font-family="sans-serif" font-size="14" lengthAdjust="spacing" textLength="152.2295" x="615.78" y="501.552">tipo : TipoMovimiento</text><ellipse cx="606.78" cy="514.5022" fill="none" rx="3" ry="3" style="stroke:#038048;stroke-width:1;"/><text fill="#000000" font-family="sans-serif" font-size="14" lengthAdjust="spacing" textLength="85.7705" x="615.78" y="517.8489">fecha : Date</text><ellipse cx="606.78" cy="530.7991" fill="none" rx="3" ry="3" style="stroke:#038048;stroke-width:1;"/><text fill="#000000" font-family="sans-serif" font-size="14" lengthAdjust="spacing" textLength="124.1064" x="615.78" y="534.1457">cantidad : Double</text><line style="stroke:#181818;stroke-width:0.5;" x1="596.78" x2="773.0095" y1="541.4475" y2="541.4475"/></g><!--class Usuario--><g class="entity" data-entity="Usuario" data-source-line="48" data-uid="ent0008" id="entity_Usuario"><rect fill="#F1F1F1" height="113.1875" rx="2.5" ry="2.5" style="stroke:#181818;stroke-width:0.5;" width="151.6377" x="792.07" y="229.78"/><ellipse cx="837.0368" cy="245.78" fill="#ADD1B2" rx="11" ry="11" style="stroke:#181818;stroke-width:1;"/><path d="M840.0055,251.4206 Q839.4274,251.7175 838.7868,251.8581 Q838.1462,252.0144 837.443,252.0144 Q834.943,252.0144 833.6149,250.3738 Q832.3024,248.7175 832.3024,245.5925 Q832.3024,242.4675 833.6149,240.8113 Q834.943,239.155 837.443,239.155 Q838.1462,239.155 838.7868,239.3113 Q839.443,239.4675 840.0055,239.7644 L840.0055,242.4831 Q839.3805,241.905 838.7868,241.6394 Q838.193,241.3581 837.568,241.3581 Q836.2243,241.3581 835.5368,242.4363 Q834.8493,243.4988 834.8493,245.5925 Q834.8493,247.6863 835.5368,248.7644 Q836.2243,249.8269 837.568,249.8269 Q838.193,249.8269 838.7868,249.5613 Q839.3805,249.28 840.0055,248.7019 L840.0055,251.4206 Z " fill="#000000"/><text fill="#000000" font-family="sans-serif" font-size="14" lengthAdjust="spacing" textLength="53.2041" x="857.5368" y="250.6267">Usuario</text><line style="stroke:#181818;stroke-width:0.5;" x1="793.07" x2="942.7077" y1="261.78" y2="261.78"/><ellipse cx="803.07" cy="275.4284" fill="none" rx="3" ry="3" style="stroke:#038048;stroke-width:1;"/><text fill="#000000" font-family="sans-serif" font-size="14" lengthAdjust="spacing" textLength="60.5186" x="812.07" y="278.7751">id : Long</text><ellipse cx="803.07" cy="291.7253" fill="none" rx="3" ry="3" style="stroke:#038048;stroke-width:1;"/><text fill="#000000" font-family="sans-serif" font-size="14" lengthAdjust="spacing" textLength="109.7305" x="812.07" y="295.072">nombre : String</text><ellipse cx="803.07" cy="308.0222" fill="none" rx="3" ry="3" style="stroke:#038048;stroke-width:1;"/><text fill="#000000" font-family="sans-serif" font-size="14" lengthAdjust="spacing" textLength="125.6377" x="812.07" y="311.3689">username : String</text><ellipse cx="803.07" cy="324.3191" fill="none" rx="3" ry="3" style="stroke:#038048;stroke-width:1;"/><text fill="#000000" font-family="sans-serif" font-size="14" lengthAdjust="spacing" textLength="122.1104" x="812.07" y="327.6657">password : String</text><line style="stroke:#181818;stroke-width:0.5;" x1="793.07" x2="942.7077" y1="334.9675" y2="334.9675"/></g><!--class Rol--><g class="entity" data-entity="Rol" data-source-line="55" data-uid="ent0009" id="entity_Rol"><rect fill="#F1F1F1" height="80.5938" rx="2.5" ry="2.5" style="stroke:#181818;stroke-width:0.5;" width="172.5215" x="781.63" y="31.44"/><ellipse cx="852.5494" cy="47.44" fill="#ADD1B2" rx="11" ry="11" style="stroke:#181818;stroke-width:1;"/><path d="M855.5182,53.0806 Q854.9401,53.3775 854.2994,53.5181 Q853.6588,53.6744 852.9557,53.6744 Q850.4557,53.6744 849.1276,52.0338 Q847.8151,50.3775 847.8151,47.2525 Q847.8151,44.1275 849.1276,42.4713 Q850.4557,40.815 852.9557,40.815 Q853.6588,40.815 854.2994,40.9713 Q854.9557,41.1275 855.5182,41.4244 L855.5182,44.1431 Q854.8932,43.565 854.2994,43.2994 Q853.7057,43.0181 853.0807,43.0181 Q851.7369,43.0181 851.0494,44.0963 Q850.3619,45.1588 850.3619,47.2525 Q850.3619,49.3463 851.0494,50.4244 Q851.7369,51.4869 853.0807,51.4869 Q853.7057,51.4869 854.2994,51.2213 Q854.8932,50.94 855.5182,50.3619 L855.5182,53.0806 Z " fill="#000000"/><text fill="#000000" font-family="sans-serif" font-size="14" lengthAdjust="spacing" textLength="22.1826" x="873.0494" y="52.2867">Rol</text><line style="stroke:#181818;stroke-width:0.5;" x1="782.63" x2="953.1515" y1="63.44" y2="63.44"/><ellipse cx="792.63" cy="77.0884" fill="none" rx="3" ry="3" style="stroke:#038048;stroke-width:1;"/><text fill="#000000" font-family="sans-serif" font-size="14" lengthAdjust="spacing" textLength="60.5186" x="801.63" y="80.4351">id : Long</text><ellipse cx="792.63" cy="93.3853" fill="none" rx="3" ry="3" style="stroke:#038048;stroke-width:1;"/><text fill="#000000" font-family="sans-serif" font-size="14" lengthAdjust="spacing" textLength="146.5215" x="801.63" y="96.732">nombre : RolSistema</text><line style="stroke:#181818;stroke-width:0.5;" x1="782.63" x2="953.1515" y1="104.0338" y2="104.0338"/></g><!--link Categoria to Producto--><g class="link" data-entity-1="Categoria" data-entity-2="Producto" data-source-line="65" data-uid="lnk10" id="link_Categoria_Producto"><path codeLine="65" d="M464.88,120.54 C463.45,140.3 463.7,163.27 468.89,183.48 C471.45,193.45 472.734,198.0247 477.124,207.7147" fill="none" id="Categoria-to-Producto" style="stroke:#181818;stroke-width:1;"/><polygon fill="#181818" points="479.6,213.18,479.5295,203.3314,477.5367,208.6256,472.2425,206.6328,479.6,213.18" style="stroke:#181818;stroke-width:1;"/><polygon fill="#000000" points="474.5854,179.9978,476.2377,170.6319,470.417,171.4494,474.5854,179.9978" style="stroke:#000000;stroke-width:1;"/><text fill="#000000" font-family="sans-serif" font-size="13" lengthAdjust="spacing" textLength="52.4126" x="482.89" y="179.5469">clasifica</text><text fill="#000000" font-family="sans-serif" font-size="13" lengthAdjust="spacing" textLength="8.271" x="455.4183" y="140.1818">1</text><text fill="#000000" font-family="sans-serif" font-size="13" lengthAdjust="spacing" textLength="23.0356" x="451.0114" y="202.3104">0..*</text></g><!--link Proveedor to Producto--><g class="link" data-entity-1="Proveedor" data-entity-2="Producto" data-source-line="68" data-uid="lnk11" id="link_Proveedor_Producto"><path codeLine="68" d="M598.79,136.96 C590.51,146.41 582.62,156.38 575.89,166.48 C566.36,180.78 560.4052,191.6664 553.3352,207.5864" fill="none" id="Proveedor-to-Producto" style="stroke:#181818;stroke-width:1;"/><polygon fill="#181818" points="550.9,213.07,558.2086,206.4681,552.9294,208.5004,550.8971,203.2211,550.9,213.07" style="stroke:#181818;stroke-width:1;"/><polygon fill="#000000" points="578.184,179.2509,585.5505,173.2354,580.6079,170.0544,578.184,179.2509" style="stroke:#000000;stroke-width:1;"/><text fill="#000000" font-family="sans-serif" font-size="13" lengthAdjust="spacing" textLength="68.3198" x="589.89" y="179.5469">suministra</text><text fill="#000000" font-family="sans-serif" font-size="13" lengthAdjust="spacing" textLength="8.271" x="583.3683" y="156.5328">1</text><text fill="#000000" font-family="sans-serif" font-size="13" lengthAdjust="spacing" textLength="23.0356" x="529.2846" y="202.4419">0..*</text></g><!--link Producto to Movimiento--><g class="link" data-entity-1="Producto" data-entity-2="Movimiento" data-source-line="71" data-uid="lnk12" id="link_Producto_Movimiento"><path codeLine="71" d="M562.35,359.67 C571.81,375.59 582.54,391.96 593.89,406.26 C601.98,416.46 607.0441,422.3207 616.5341,431.8407" fill="none" id="Producto-to-Movimiento" style="stroke:#181818;stroke-width:1;"/><polygon fill="#181818" points="620.77,436.09,617.249,426.892,617.24,432.5489,611.5832,432.54,620.77,436.09" style="stroke:#181818;stroke-width:1;"/><polygon fill="#000000" points="601.892,401.8249,598.8116,392.827,594.1111,396.3561,601.892,401.8249" style="stroke:#000000;stroke-width:1;"/><text fill="#000000" font-family="sans-serif" font-size="13" lengthAdjust="spacing" textLength="50.3877" x="607.89" y="402.3269">registra</text><text fill="#000000" font-family="sans-serif" font-size="13" lengthAdjust="spacing" textLength="8.271" x="557.552" y="379.4444">1</text><text fill="#000000" font-family="sans-serif" font-size="13" lengthAdjust="spacing" textLength="23.0356" x="588.5554" y="425.3328">0..*</text></g><!--link Usuario to Movimiento--><g class="link" data-entity-1="Usuario" data-entity-2="Movimiento" data-source-line="74" data-uid="lnk13" id="link_Usuario_Movimiento"><path codeLine="74" d="M817.89,343.25 C792.06,372.1 764.6505,402.7283 738.8405,431.5783" fill="none" id="Usuario-to-Movimiento" style="stroke:#181818;stroke-width:1;"/><polygon fill="#181818" points="734.84,436.05,743.8219,432.0095,738.1737,432.3236,737.8596,426.6755,734.84,436.05" style="stroke:#181818;stroke-width:1;"/><polygon fill="#000000" points="778.5556,401.5522,786.7776,396.7721,782.3976,392.8522,778.5556,401.5522" style="stroke:#000000;stroke-width:1;"/><text fill="#000000" font-family="sans-serif" font-size="13" lengthAdjust="spacing" textLength="43.3228" x="790.89" y="402.3269">realiza</text><text fill="#000000" font-family="sans-serif" font-size="13" lengthAdjust="spacing" textLength="8.271" x="803.3254" y="363.1708">1</text><text fill="#000000" font-family="sans-serif" font-size="13" lengthAdjust="spacing" textLength="23.0356" x="716.5277" y="425.288">0..*</text></g><!--link Proveedor to Movimiento--><g class="link" data-entity-1="Proveedor" data-entity-2="Movimiento" data-source-line="77" data-uid="lnk14" id="link_Proveedor_Movimiento"><path codeLine="77" d="M669.64,136.85 C673.15,218.48 678.8927,352.2355 682.2227,429.8055" fill="none" id="Proveedor-to-Movimiento" style="stroke:#181818;stroke-width:1;"/><polygon fill="#181818" points="682.48,435.8,686.0903,426.6367,682.2656,430.8046,678.0977,426.9798,682.48,435.8" style="stroke:#181818;stroke-width:1;"/><polygon fill="#000000" points="685.1046,291.4318,687.6526,282.2689,681.7802,282.5212,685.1046,291.4318" style="stroke:#000000;stroke-width:1;"/><text fill="#000000" font-family="sans-serif" font-size="13" lengthAdjust="spacing" textLength="57.2495" x="693.89" y="290.9369">participa</text><text fill="#000000" font-family="sans-serif" font-size="13" lengthAdjust="spacing" textLength="24.8066" x="644.7273" y="156.4114">0..1</text><text fill="#000000" font-family="sans-serif" font-size="13" lengthAdjust="spacing" textLength="23.0356" x="657.7863" y="425.0075">0..*</text></g><!--link Rol to Usuario--><g class="link" data-entity-1="Rol" data-entity-2="Usuario" data-source-line="80" data-uid="lnk15" id="link_Rol_Usuario"><path codeLine="80" d="M867.89,112.24 C867.89,145.26 867.89,186.76 867.89,223.65" fill="none" id="Rol-to-Usuario" style="stroke:#181818;stroke-width:1;"/><polygon fill="#181818" points="867.89,229.65,871.89,220.65,867.89,224.65,863.89,220.65,867.89,229.65" style="stroke:#181818;stroke-width:1;"/><polygon fill="#000000" points="872.89,180.0464,875.8289,171.0013,869.9511,171.0013,872.89,180.0464" style="stroke:#000000;stroke-width:1;"/><text fill="#000000" font-family="sans-serif" font-size="13" lengthAdjust="spacing" textLength="42.8086" x="881.89" y="179.5469">asigna</text><text fill="#000000" font-family="sans-serif" font-size="13" lengthAdjust="spacing" textLength="8.271" x="859.274" y="131.968">1</text><text fill="#000000" font-family="sans-serif" font-size="13" lengthAdjust="spacing" textLength="23.0356" x="843.4908" y="218.8977">0..*</text></g><!--SRC=[dLJDRjf04BxxAKPSaDecQgz8HNB1Yf124fcarsZP7SYetbrhTqtLLdsW7leKUR7EsXXZb12hNDZv- -QRcG_6yFdi9nb3PYgDJaYo1ZtRRnGWfyCzbNPfTwG9JR3mAm78RkxpT9xoQvLUB_ZnEsboSrkio0VKeivBvyl5pM8Las_pkcwMvbTiF7wvdMTNDS33NPP_NQmupY3ZjqUO5SAZXzAHaLIAOiWSaciyp4J0hNNKS7jF2YPmRSqs6iRgjKDsh083row5NZeguwuwFtDimEwStI4gwmQ2aKFPXs9lm08trjYUavT7nSiTLINt5_W_zkol32cXbgZugnVmmSflgGoLYCqNXdU5xX1OaY5jZm87MYVIw1CBh1qs-nAAWGtAfzX_pZU9jXGcH6BHPQjrWLs31ry9HmF7hZmw8tJVMJBCT-lK2qjbmPu3xlGyK9qv5ljV5_m0APmY8ueus12PSiRXo2MwW0ObWe3AY5Qyptz5qkbuz6a45nTJ67syl7mtweed4AUZ3Ka1qpEmdOgJJi-lW_fAimnySAUeWU-Ae2lvP8y5uPD3nWdeaMWcu71x17eKAYp7U7q_Qwvx7IIj7iv3DcKrOcP0Tvn08V332IK-G11wJSz_313BsktgCLvR2xSvqx4KBb3yGsfwjYH32ybAIgBOJbYtUHFWUstvpjD_]--></g></svg>